<svg width="185" height="185" viewBox="0 0 185 185" fill="none" xmlns="http://www.w3.org/2000/svg">
<path d="M35.2939 70.8809L75.159 85.8577M98.6594 75.1894L113.635 35.3284M149.187 113.669L109.326 98.6938M85.8245 109.359L70.8464 149.222" stroke="#EA4701" stroke-width="3.5" stroke-linecap="round" stroke-linejoin="round"/>
<path d="M75.6217 99.8177L50.6936 111.131M73.3857 50.729L84.6986 75.6571M133.787 73.4211L108.859 84.734M16.8775 94.7915L38.4502 94.0735M40.7416 147.369L55.4851 131.603M94.7947 167.665L94.0699 146.092M147.365 143.791L131.595 129.049M167.65 89.7293L146.076 90.4609M143.763 37.1684L129.028 52.9378M89.6996 16.8942L90.434 38.4662M37.1592 40.8182L52.9411 55.5446M101.574 111.131L112.887 136.059" stroke="#EA4701" stroke-width="3.5" stroke-miterlimit="10" stroke-linecap="round"/>
<circle cx="93.0742" cy="92.0703" r="10.5" fill="#EA4701"/>
</svg>
