<svg width="300" height="300" viewBox="0 0 300 300" fill="none" xmlns="http://www.w3.org/2000/svg">
<path d="M110 0L114.587 1.70559C136.804 9.96564 161.233 10.0657 183.516 1.98788L189 0L300 300H0L110 0Z" fill="#2D1400"/>
<circle cx="77.5" cy="85.5" r="10.5" fill="#118D06"/>
<circle cx="87.5" cy="89.5" r="10.5" fill="#118D06"/>
<circle cx="76.5" cy="95.5" r="10.5" fill="#118D06"/>
<circle cx="108.5" cy="116.5" r="10.5" fill="#118D06"/>
<circle cx="119.5" cy="123.5" r="10.5" fill="#118D06"/>
<circle cx="105.5" cy="127.5" r="10.5" fill="#118D06"/>
<circle cx="213.5" cy="80.5" r="10.5" fill="#118D06"/>
<circle cx="224.5" cy="87.5" r="10.5" fill="#118D06"/>
<circle cx="210.5" cy="91.5" r="10.5" fill="#118D06"/>
<circle cx="202.5" cy="151.5" r="10.5" fill="#118D06"/>
<circle cx="213.5" cy="158.5" r="10.5" fill="#118D06"/>
<circle cx="199.5" cy="162.5" r="10.5" fill="#118D06"/>
<circle cx="157.5" cy="53.5" r="10.5" fill="#118D06"/>
<circle cx="168.5" cy="60.5" r="10.5" fill="#118D06"/>
<circle cx="154.5" cy="64.5" r="10.5" fill="#118D06"/>
<circle cx="76.5" cy="193.5" r="10.5" fill="#118D06"/>
<circle cx="87.5" cy="200.5" r="10.5" fill="#118D06"/>
<circle cx="73.5" cy="204.5" r="10.5" fill="#118D06"/>
<circle cx="264.5" cy="237.5" r="10.5" fill="#118D06"/>
<circle cx="275.5" cy="244.5" r="10.5" fill="#118D06"/>
<circle cx="261.5" cy="248.5" r="10.5" fill="#118D06"/>
<circle cx="147.5" cy="221.5" r="10.5" fill="#118D06"/>
<circle cx="158.5" cy="228.5" r="10.5" fill="#118D06"/>
<circle cx="144.5" cy="232.5" r="10.5" fill="#118D06"/>
<circle cx="13.5" cy="265.5" r="10.5" fill="#118D06"/>
<circle cx="24.5" cy="272.5" r="10.5" fill="#118D06"/>
<circle cx="10.5" cy="276.5" r="10.5" fill="#118D06"/>
<circle cx="195.5" cy="261.5" r="10.5" fill="#118D06"/>
<circle cx="206.5" cy="268.5" r="10.5" fill="#118D06"/>
<circle cx="192.5" cy="272.5" r="10.5" fill="#118D06"/>
</svg>
