<svg width="1560" height="499" viewBox="0 0 1560 499" fill="none" xmlns="http://www.w3.org/2000/svg">
<path d="M780 0L681.325 31.1064C412.71 115.785 175.478 278.701 0 499H780V0Z" fill="black"/>
<path d="M780 0L878.675 31.1064C1147.29 115.785 1384.52 278.701 1560 499H780V0Z" fill="black"/>
<path d="M529.224 133.758L682 31.5L723 18L760.5 6.5H795L891 39L980 120L1034.97 171.719C1048.75 184.683 1065.67 193.837 1084.06 198.281L1150.58 214.353C1176.31 220.571 1198.9 235.941 1214.13 257.594L1232 283L1204.5 301.5L1197.12 287.827C1180.41 256.869 1149.79 235.878 1114.89 231.458L1090.96 228.427C1068.23 225.549 1046.99 215.584 1030.25 199.947L972.285 145.805C967.438 141.278 963.015 136.318 959.07 130.987L891 39L795 6.5L858 56L861.413 107.2C863.086 132.292 873.384 156.034 890.56 174.401L945.163 232.788C957.672 246.164 963.264 264.588 960.302 282.66C957.004 302.774 964.317 323.166 979.645 336.602L995.5 350.5L960 376.5L935.328 338.087C925.813 323.273 922.398 305.353 925.796 288.078C930.008 266.668 923.719 244.536 908.877 228.54L867.451 183.892C851.263 166.445 841.231 144.179 838.886 120.494L832.5 56L795 6.5H760.5L727 92L743.915 150.067C754.075 184.943 743.603 222.565 716.886 247.178C692.687 269.47 681.643 302.634 687.644 334.984L698.5 393.5L664.5 376.5L656.462 324.12C651.813 293.831 662.935 263.262 685.96 243.041C711.171 220.901 721.932 186.552 713.861 153.985L698.5 92L723 18L547.529 146.035C526.076 161.689 511.787 185.284 507.855 211.548C503.8 238.638 488.734 262.849 466.222 278.454L413.5 315L391 301.5L448.059 261.78C469.426 246.905 483.817 223.972 487.918 198.262C492.115 171.952 507.082 148.578 529.224 133.758Z" fill="#EA4701"/>
<path d="M1027.78 127.258L875 25L834 11.5L796.5 0H762L666 32.5L577 113.5L522.026 165.219C508.246 178.183 491.329 187.337 472.939 191.781L406.423 207.853C380.691 214.071 358.101 229.441 342.87 251.094L325 276.5L352.5 295L359.879 281.327C376.587 250.369 407.208 229.378 442.108 224.958L466.042 221.927C488.768 219.049 510.01 209.084 526.751 193.447L584.715 139.305C589.562 134.778 593.985 129.818 597.93 124.487L666 32.5L762 0L699 49.5L695.587 100.7C693.914 125.792 683.616 149.534 666.44 167.901L611.837 226.288C599.328 239.664 593.736 258.088 596.698 276.16C599.996 296.274 592.683 316.666 577.355 330.102L561.5 344L597 370L621.672 331.587C631.187 316.773 634.602 298.853 631.204 281.578C626.992 260.168 633.281 238.036 648.123 222.04L689.549 177.392C705.737 159.945 715.769 137.679 718.114 113.994L724.5 49.5L762 0H796.5L830 85.5L813.085 143.567C802.925 178.443 813.397 216.065 840.114 240.678C864.313 262.97 875.357 296.134 869.356 328.484L858.5 387L892.5 370L900.538 317.62C905.187 287.331 894.065 256.762 871.04 236.541C845.829 214.401 835.068 180.052 843.139 147.485L858.5 85.5L834 11.5L1009.47 139.535C1030.92 155.189 1045.21 178.784 1049.14 205.048C1053.2 232.138 1068.27 256.349 1090.78 271.954L1143.5 308.5L1166 295L1108.94 255.28C1087.57 240.405 1073.18 217.472 1069.08 191.762C1064.88 165.452 1049.92 142.078 1027.78 127.258Z" fill="#EA4701"/>
</svg>
