<svg width="300" height="270" viewBox="0 0 300 270" fill="none" xmlns="http://www.w3.org/2000/svg">
<path d="M184.733 0C199.504 8.05624 217.334 8.15047 232.188 0.250791L232.66 0L300 267H118L184.733 0Z" fill="#2D1400"/>
<path d="M76.2667 59C93.7236 65.4904 112.919 65.569 130.428 59.2218L131.04 59L208 267H0L76.2667 59Z" fill="#2D1400"/>
<path d="M104.023 63.9061L112.9 63.4924L120.06 62.241L140.76 267.137L121.825 267.346L104.023 63.9061Z" fill="#EA4701"/>
<path d="M207 6L208.604 5.91777C213.447 5.66966 218.261 5.02837 223 4.00026L253.109 267.097L234.138 267.204L207 6Z" fill="#EA4701"/>
</svg>
