<svg width="1920" height="1059" viewBox="0 0 1920 1059" fill="none" xmlns="http://www.w3.org/2000/svg">
<rect width="1920" height="1059" fill="url(#paint0_radial_784_2)"/>
<path d="M187.512 163.208L191.072 155.02C201.159 155.376 209.584 156.978 216.348 159.826C223.112 162.674 228.155 166.649 231.478 171.752C234.919 176.736 236.64 182.729 236.64 189.73C236.64 196.969 234.979 203.495 231.656 209.31C228.452 215.125 223.527 219.693 216.882 223.016C210.237 226.339 201.93 228 191.962 228H87.12L97.266 159.47L87.12 94.5H188.224C200.565 94.5 210.237 97.4073 217.238 103.222C224.239 108.918 227.74 116.869 227.74 127.074C227.74 132.889 226.435 138.347 223.824 143.45C221.213 148.553 216.941 152.884 211.008 156.444C205.193 159.885 197.361 162.14 187.512 163.208ZM131.976 218.032L114.532 197.562H177.366C181.282 197.562 184.367 196.553 186.622 194.536C188.877 192.4 190.004 189.552 190.004 185.992C190.004 182.788 188.877 180.059 186.622 177.804C184.486 175.549 181.282 174.422 177.01 174.422H124.322V144.518H170.246C173.331 144.518 175.883 143.569 177.9 141.67C180.036 139.771 181.104 137.339 181.104 134.372C181.104 131.643 180.155 129.388 178.256 127.608C176.357 125.828 173.687 124.938 170.246 124.938H114.71L131.976 104.468L141.054 159.47L131.976 218.032ZM337.627 228L332.465 191.866L337.627 176.914L332.465 162.14L337.627 125.65H384.619L377.499 176.736L384.619 228H337.627ZM347.061 176.914C345.875 187.831 342.908 197.384 338.161 205.572C333.533 213.641 327.422 219.931 319.827 224.44C312.351 228.949 303.748 231.204 294.017 231.204C284.049 231.204 275.268 228.949 267.673 224.44C260.197 219.931 254.323 213.582 250.051 205.394C245.898 197.206 243.821 187.713 243.821 176.914C243.821 165.997 245.898 156.444 250.051 148.256C254.323 140.068 260.197 133.719 267.673 129.21C275.268 124.701 284.049 122.446 294.017 122.446C303.748 122.446 312.351 124.701 319.827 129.21C327.422 133.601 333.593 139.89 338.339 148.078C343.086 156.147 345.993 165.759 347.061 176.914ZM289.389 176.914C289.389 180.83 290.161 184.331 291.703 187.416C293.365 190.383 295.619 192.756 298.467 194.536C301.434 196.316 304.816 197.206 308.613 197.206C312.529 197.206 316.327 196.316 320.005 194.536C323.684 192.756 326.888 190.383 329.617 187.416C332.465 184.331 334.423 180.83 335.491 176.914C334.423 172.998 332.465 169.497 329.617 166.412C326.888 163.327 323.684 160.894 320.005 159.114C316.327 157.334 312.529 156.444 308.613 156.444C304.816 156.444 301.434 157.334 298.467 159.114C295.619 160.894 293.365 163.327 291.703 166.412C290.161 169.497 289.389 172.998 289.389 176.914ZM397.179 228V125.65H442.391V208.242L428.863 194.714H486.891L473.363 208.242V125.65H518.575V208.242L505.047 194.714H563.075L549.547 208.242V125.65H594.759V228H397.179ZM700.323 228L695.161 191.866L700.323 176.914L695.161 162.14L700.323 125.65H747.315L740.195 176.736L747.315 228H700.323ZM709.757 176.914C708.57 187.831 705.604 197.384 700.857 205.572C696.229 213.641 690.118 219.931 682.523 224.44C675.047 228.949 666.444 231.204 656.713 231.204C646.745 231.204 637.964 228.949 630.369 224.44C622.893 219.931 617.019 213.582 612.747 205.394C608.594 197.206 606.517 187.713 606.517 176.914C606.517 165.997 608.594 156.444 612.747 148.256C617.019 140.068 622.893 133.719 630.369 129.21C637.964 124.701 646.745 122.446 656.713 122.446C666.444 122.446 675.047 124.701 682.523 129.21C690.118 133.601 696.288 139.89 701.035 148.078C705.782 156.147 708.689 165.759 709.757 176.914ZM652.085 176.914C652.085 180.83 652.856 184.331 654.399 187.416C656.06 190.383 658.315 192.756 661.163 194.536C664.13 196.316 667.512 197.206 671.309 197.206C675.225 197.206 679.022 196.316 682.701 194.536C686.38 192.756 689.584 190.383 692.313 187.416C695.161 184.331 697.119 180.83 698.187 176.914C697.119 172.998 695.161 169.497 692.313 166.412C689.584 163.327 686.38 160.894 682.701 159.114C679.022 157.334 675.225 156.444 671.309 156.444C667.512 156.444 664.13 157.334 661.163 159.114C658.315 160.894 656.06 163.327 654.399 166.412C652.856 169.497 652.085 172.998 652.085 176.914ZM884.356 257.37V206.818L887.204 202.724V150.036L884.356 146.12V90.94H928.856V146.12L926.008 150.036V202.724L928.856 206.818V257.37H884.356ZM916.04 176.914C917.226 165.759 920.015 156.147 924.406 148.078C928.915 139.89 934.848 133.601 942.206 129.21C949.563 124.701 957.988 122.446 967.482 122.446C977.45 122.446 986.112 124.701 993.47 129.21C1000.83 133.719 1006.52 140.068 1010.56 148.256C1014.59 156.444 1016.61 165.997 1016.61 176.914C1016.61 187.713 1014.53 197.206 1010.38 205.394C1006.34 213.582 1000.65 219.931 993.292 224.44C985.934 228.949 977.331 231.204 967.482 231.204C957.87 231.204 949.444 228.949 942.206 224.44C934.967 219.931 929.093 213.641 924.584 205.572C920.193 197.384 917.345 187.831 916.04 176.914ZM971.042 176.914C971.042 172.998 970.27 169.497 968.728 166.412C967.304 163.327 965.227 160.894 962.498 159.114C959.768 157.334 956.564 156.444 952.886 156.444C947.19 156.444 941.85 158.402 936.866 162.318C932 166.115 928.737 170.981 927.076 176.914C928.737 182.729 932 187.594 936.866 191.51C941.85 195.307 947.19 197.206 952.886 197.206C956.564 197.206 959.768 196.316 962.498 194.536C965.227 192.756 967.304 190.383 968.728 187.416C970.27 184.331 971.042 180.83 971.042 176.914ZM897.172 176.914C895.985 187.831 893.137 197.384 888.628 205.572C884.118 213.641 878.244 219.931 871.006 224.44C863.767 228.949 855.342 231.204 845.73 231.204C835.88 231.204 827.218 228.949 819.742 224.44C812.384 219.931 806.688 213.582 802.654 205.394C798.619 197.206 796.602 187.713 796.602 176.914C796.602 165.997 798.619 156.444 802.654 148.256C806.688 140.068 812.384 133.719 819.742 129.21C827.218 124.701 835.88 122.446 845.73 122.446C855.342 122.446 863.767 124.701 871.006 129.21C878.363 133.601 884.296 139.89 888.806 148.078C893.315 156.147 896.104 165.759 897.172 176.914ZM842.17 176.914C842.17 180.83 842.882 184.331 844.306 187.416C845.848 190.383 847.984 192.756 850.714 194.536C853.443 196.316 856.647 197.206 860.326 197.206C866.022 197.206 871.302 195.307 876.168 191.51C881.152 187.594 884.474 182.729 886.136 176.914C884.474 170.981 881.152 166.115 876.168 162.318C871.302 158.402 866.022 156.444 860.326 156.444C856.647 156.444 853.443 157.334 850.714 159.114C847.984 160.894 845.848 163.327 844.306 166.412C842.882 169.497 842.17 172.998 842.17 176.914ZM1091.9 231.204C1078.37 231.204 1066.51 228.949 1056.3 224.44C1046.22 219.931 1038.32 213.582 1032.63 205.394C1027.05 197.206 1024.26 187.713 1024.26 176.914C1024.26 165.997 1027.05 156.444 1032.63 148.256C1038.32 140.068 1046.22 133.719 1056.3 129.21C1066.51 124.701 1078.37 122.446 1091.9 122.446C1105.43 122.446 1117.24 124.701 1127.32 129.21C1137.53 133.719 1145.42 140.068 1151 148.256C1156.69 156.444 1159.54 165.997 1159.54 176.914C1159.54 187.713 1156.69 197.206 1151 205.394C1145.42 213.582 1137.53 219.931 1127.32 224.44C1117.24 228.949 1105.43 231.204 1091.9 231.204ZM1091.9 198.274C1096.65 198.274 1100.62 197.443 1103.83 195.782C1107.15 194.121 1109.64 191.688 1111.3 188.484C1113.08 185.28 1113.97 181.423 1113.97 176.914C1113.97 172.286 1113.08 168.37 1111.3 165.166C1109.64 161.962 1107.15 159.529 1103.83 157.868C1100.62 156.207 1096.65 155.376 1091.9 155.376C1087.27 155.376 1083.3 156.207 1079.98 157.868C1076.65 159.529 1074.1 161.962 1072.32 165.166C1070.66 168.37 1069.83 172.286 1069.83 176.914C1069.83 181.423 1070.66 185.28 1072.32 188.484C1074.1 191.688 1076.65 194.121 1079.98 195.782C1083.3 197.443 1087.27 198.274 1091.9 198.274ZM1170.68 125.65H1215.89V150.926L1214.11 155.91V189.73L1215.89 199.52V257.37H1170.68V125.65ZM1202.54 176.914C1203.73 165.759 1206.64 156.147 1211.26 148.078C1216.01 139.89 1222.18 133.601 1229.78 129.21C1237.37 124.701 1245.97 122.446 1255.59 122.446C1265.67 122.446 1274.45 124.701 1281.93 129.21C1289.41 133.719 1295.22 140.068 1299.37 148.256C1303.65 156.444 1305.78 165.997 1305.78 176.914C1305.78 187.713 1303.65 197.206 1299.37 205.394C1295.22 213.582 1289.41 219.931 1281.93 224.44C1274.45 228.949 1265.67 231.204 1255.59 231.204C1245.86 231.204 1237.19 228.949 1229.6 224.44C1222.12 219.931 1216.07 213.641 1211.44 205.572C1206.81 197.384 1203.85 187.831 1202.54 176.914ZM1260.21 176.914C1260.21 172.998 1259.38 169.497 1257.72 166.412C1256.18 163.327 1253.92 160.894 1250.96 159.114C1248.11 157.334 1244.79 156.444 1240.99 156.444C1237.07 156.444 1233.28 157.334 1229.6 159.114C1225.92 160.894 1222.72 163.327 1219.99 166.412C1217.26 169.497 1215.3 172.998 1214.11 176.914C1215.3 180.83 1217.26 184.331 1219.99 187.416C1222.72 190.383 1225.92 192.756 1229.6 194.536C1233.28 196.316 1237.07 197.206 1240.99 197.206C1244.79 197.206 1248.11 196.316 1250.96 194.536C1253.92 192.756 1256.18 190.383 1257.72 187.416C1259.38 184.331 1260.21 180.83 1260.21 176.914ZM1317.35 228V125.65H1385.52L1409.55 202.368H1398.87L1422.55 125.65H1490.72V228H1448.36V143.45H1454.23L1424.15 228H1383.92L1353.84 143.806L1359.71 143.45V228H1317.35ZM1596.33 228L1591.17 191.866L1596.33 176.914L1591.17 162.14L1596.33 125.65H1643.32L1636.2 176.736L1643.32 228H1596.33ZM1605.76 176.914C1604.58 187.831 1601.61 197.384 1596.86 205.572C1592.24 213.641 1586.13 219.931 1578.53 224.44C1571.05 228.949 1562.45 231.204 1552.72 231.204C1542.75 231.204 1533.97 228.949 1526.38 224.44C1518.9 219.931 1513.03 213.582 1508.75 205.394C1504.6 197.206 1502.52 187.713 1502.52 176.914C1502.52 165.997 1504.6 156.444 1508.75 148.256C1513.03 140.068 1518.9 133.719 1526.38 129.21C1533.97 124.701 1542.75 122.446 1552.72 122.446C1562.45 122.446 1571.05 124.701 1578.53 129.21C1586.13 133.601 1592.3 139.89 1597.04 148.078C1601.79 156.147 1604.7 165.759 1605.76 176.914ZM1548.09 176.914C1548.09 180.83 1548.86 184.331 1550.41 187.416C1552.07 190.383 1554.32 192.756 1557.17 194.536C1560.14 196.316 1563.52 197.206 1567.32 197.206C1571.23 197.206 1575.03 196.316 1578.71 194.536C1582.39 192.756 1585.59 190.383 1588.32 187.416C1591.17 184.331 1593.13 180.83 1594.19 176.914C1593.13 172.998 1591.17 169.497 1588.32 166.412C1585.59 163.327 1582.39 160.894 1578.71 159.114C1575.03 157.334 1571.23 156.444 1567.32 156.444C1563.52 156.444 1560.14 157.334 1557.17 159.114C1554.32 160.894 1552.07 163.327 1550.41 166.412C1548.86 169.497 1548.09 172.998 1548.09 176.914ZM128.06 438.574C119.516 438.574 111.981 437.506 105.454 435.37C99.046 433.353 92.638 429.971 86.23 425.224V394.964C92.5193 398.999 98.334 401.906 103.674 403.686C109.133 405.347 115.007 406.178 121.296 406.178C126.28 406.178 130.611 405.169 134.29 403.152C138.087 401.016 141.173 396.981 143.546 391.048L178.256 303.65H226.316L179.68 404.576C175.764 413.12 170.958 419.884 165.262 424.868C159.685 429.852 153.692 433.353 147.284 435.37C140.876 437.506 134.468 438.574 128.06 438.574ZM122.364 392.294L81.246 303.65H131.086L165.44 392.294H122.364ZM353.631 360.966C352.8 370.578 349.418 379.003 343.485 386.242C337.551 393.481 329.779 399.117 320.167 403.152C310.673 407.187 299.934 409.204 287.949 409.204C274.895 409.204 263.385 406.949 253.417 402.44C243.449 397.812 235.676 391.404 230.099 383.216C224.521 375.028 221.733 365.594 221.733 354.914C221.733 344.115 224.521 334.681 230.099 326.612C235.676 318.424 243.449 312.016 253.417 307.388C263.385 302.76 274.895 300.446 287.949 300.446C299.934 300.446 310.673 302.463 320.167 306.498C329.779 310.533 337.551 316.169 343.485 323.408C349.418 330.528 352.8 338.953 353.631 348.684H308.953C307.885 343.581 305.452 339.784 301.655 337.292C297.976 334.681 293.407 333.376 287.949 333.376C283.795 333.376 280.117 334.207 276.913 335.868C273.827 337.411 271.454 339.784 269.793 342.988C268.131 346.192 267.301 350.167 267.301 354.914C267.301 359.661 268.131 363.636 269.793 366.84C271.454 369.925 273.827 372.299 276.913 373.96C280.117 375.503 283.795 376.274 287.949 376.274C293.407 376.274 297.976 374.909 301.655 372.18C305.452 369.332 307.885 365.594 308.953 360.966H353.631ZM491.956 303.65V406H446.744V316.288L467.392 336.936H388.716L409.364 316.288V406H364.152V303.65H491.956ZM569.823 409.204C557.125 409.204 545.733 406.949 535.647 402.44C525.679 397.812 517.787 391.404 511.973 383.216C506.158 374.909 503.251 365.297 503.251 354.38C503.251 343.581 506.039 334.147 511.617 326.078C517.313 318.009 525.026 311.719 534.757 307.21C544.487 302.701 555.405 300.446 567.509 300.446C580.206 300.446 591.005 303.057 599.905 308.278C608.805 313.499 615.628 320.916 620.375 330.528C625.121 340.021 627.495 351.295 627.495 364.348H540.275V343.522H601.151L589.047 350.286C588.453 345.658 587.267 341.801 585.487 338.716C583.707 335.631 581.333 333.317 578.367 331.774C575.519 330.113 572.077 329.282 568.043 329.282C563.533 329.282 559.677 330.291 556.473 332.308C553.387 334.325 551.014 337.114 549.353 340.674C547.81 344.115 547.039 348.031 547.039 352.422C547.039 358.118 548.285 362.924 550.777 366.84C553.387 370.637 557.303 373.545 562.525 375.562C567.746 377.579 574.332 378.588 582.283 378.588C589.996 378.588 597.472 377.639 604.711 375.74C612.068 373.723 618.832 370.875 625.003 367.196V392.828C617.408 398.168 608.745 402.262 599.015 405.11C589.403 407.839 579.672 409.204 569.823 409.204ZM639.065 406V303.65H684.277V386.242L670.749 372.714H728.777L715.249 386.242V303.65H760.461V386.242L746.933 372.714H804.961L791.433 386.242V303.65H836.645V406H639.065ZM851.962 303.65H897.174V406H851.962V303.65ZM935.266 303.65H980.478V406H935.266V303.65ZM878.128 336.758H951.82V370.044H878.128V336.758ZM1059.4 409.204C1045.87 409.204 1034 406.949 1023.8 402.44C1013.71 397.931 1005.82 391.582 1000.12 383.394C994.545 375.206 991.756 365.713 991.756 354.914C991.756 343.997 994.545 334.444 1000.12 326.256C1005.82 318.068 1013.71 311.719 1023.8 307.21C1034 302.701 1045.87 300.446 1059.4 300.446C1072.92 300.446 1084.73 302.701 1094.82 307.21C1105.02 311.719 1112.92 318.068 1118.49 326.256C1124.19 334.444 1127.04 343.997 1127.04 354.914C1127.04 365.713 1124.19 375.206 1118.49 383.394C1112.92 391.582 1105.02 397.931 1094.82 402.44C1084.73 406.949 1072.92 409.204 1059.4 409.204ZM1059.4 376.274C1064.14 376.274 1068.12 375.443 1071.32 373.782C1074.65 372.121 1077.14 369.688 1078.8 366.484C1080.58 363.28 1081.47 359.423 1081.47 354.914C1081.47 350.286 1080.58 346.37 1078.8 343.166C1077.14 339.962 1074.65 337.529 1071.32 335.868C1068.12 334.207 1064.14 333.376 1059.4 333.376C1054.77 333.376 1050.79 334.207 1047.47 335.868C1044.15 337.529 1041.6 339.962 1039.82 343.166C1038.16 346.37 1037.32 350.286 1037.32 354.914C1037.32 359.423 1038.16 363.28 1039.82 366.484C1041.6 369.688 1044.15 372.121 1047.47 373.782C1050.79 375.443 1054.77 376.274 1059.4 376.274ZM152.09 587.204C138.562 587.204 126.695 584.949 116.49 580.44C106.403 575.931 98.512 569.582 92.816 561.394C87.2387 553.206 84.45 543.713 84.45 532.914C84.45 521.997 87.2387 512.444 92.816 504.256C98.512 496.068 106.403 489.719 116.49 485.21C126.695 480.701 138.562 478.446 152.09 478.446C165.618 478.446 177.425 480.701 187.512 485.21C197.717 489.719 205.609 496.068 211.186 504.256C216.882 512.444 219.73 521.997 219.73 532.914C219.73 543.713 216.882 553.206 211.186 561.394C205.609 569.582 197.717 575.931 187.512 580.44C177.425 584.949 165.618 587.204 152.09 587.204ZM152.09 554.274C156.837 554.274 160.812 553.443 164.016 551.782C167.339 550.121 169.831 547.688 171.492 544.484C173.272 541.28 174.162 537.423 174.162 532.914C174.162 528.286 173.272 524.37 171.492 521.166C169.831 517.962 167.339 515.529 164.016 513.868C160.812 512.207 156.837 511.376 152.09 511.376C147.462 511.376 143.487 512.207 140.164 513.868C136.841 515.529 134.29 517.962 132.51 521.166C130.849 524.37 130.018 528.286 130.018 532.914C130.018 537.423 130.849 541.28 132.51 544.484C134.29 547.688 136.841 550.121 140.164 551.782C143.487 553.443 147.462 554.274 152.09 554.274ZM258.702 497.314H303.914V584H258.702V497.314ZM222.212 481.65H340.404V515.292H222.212V481.65ZM477.702 481.65V584H432.49V494.288L453.138 514.936H374.462L395.11 494.288V584H349.898V481.65H477.702ZM493.091 481.65H538.303V506.926L536.523 511.91V545.73L538.303 555.52V613.37H493.091V481.65ZM524.953 532.914C526.139 521.759 529.047 512.147 533.675 504.078C538.421 495.89 544.592 489.601 552.187 485.21C559.781 480.701 568.385 478.446 577.997 478.446C588.083 478.446 596.865 480.701 604.341 485.21C611.817 489.719 617.631 496.068 621.785 504.256C626.057 512.444 628.193 521.997 628.193 532.914C628.193 543.713 626.057 553.206 621.785 561.394C617.631 569.582 611.817 575.931 604.341 580.44C596.865 584.949 588.083 587.204 577.997 587.204C568.266 587.204 559.603 584.949 552.009 580.44C544.533 575.931 538.481 569.641 533.853 561.572C529.225 553.384 526.258 543.831 524.953 532.914ZM582.625 532.914C582.625 528.998 581.794 525.497 580.133 522.412C578.59 519.327 576.335 516.894 573.369 515.114C570.521 513.334 567.198 512.444 563.401 512.444C559.485 512.444 555.687 513.334 552.009 515.114C548.33 516.894 545.126 519.327 542.397 522.412C539.667 525.497 537.709 528.998 536.523 532.914C537.709 536.83 539.667 540.331 542.397 543.416C545.126 546.383 548.33 548.756 552.009 550.536C555.687 552.316 559.485 553.206 563.401 553.206C567.198 553.206 570.521 552.316 573.369 550.536C576.335 548.756 578.59 546.383 580.133 543.416C581.794 540.331 582.625 536.83 582.625 532.914ZM730.006 584L724.844 547.866L730.006 532.914L724.844 518.14L730.006 481.65H776.998L769.878 532.736L776.998 584H730.006ZM739.44 532.914C738.253 543.831 735.287 553.384 730.54 561.572C725.912 569.641 719.801 575.931 712.206 580.44C704.73 584.949 696.127 587.204 686.396 587.204C676.428 587.204 667.647 584.949 660.052 580.44C652.576 575.931 646.702 569.582 642.43 561.394C638.277 553.206 636.2 543.713 636.2 532.914C636.2 521.997 638.277 512.444 642.43 504.256C646.702 496.068 652.576 489.719 660.052 485.21C667.647 480.701 676.428 478.446 686.396 478.446C696.127 478.446 704.73 480.701 712.206 485.21C719.801 489.601 725.971 495.89 730.718 504.078C735.465 512.147 738.372 521.759 739.44 532.914ZM681.768 532.914C681.768 536.83 682.539 540.331 684.082 543.416C685.743 546.383 687.998 548.756 690.846 550.536C693.813 552.316 697.195 553.206 700.992 553.206C704.908 553.206 708.705 552.316 712.384 550.536C716.063 548.756 719.267 546.383 721.996 543.416C724.844 540.331 726.802 536.83 727.87 532.914C726.802 528.998 724.844 525.497 721.996 522.412C719.267 519.327 716.063 516.894 712.384 515.114C708.705 513.334 704.908 512.444 700.992 512.444C697.195 512.444 693.813 513.334 690.846 515.114C687.998 516.894 685.743 519.327 684.082 522.412C682.539 525.497 681.768 528.998 681.768 532.914ZM786.888 584L794.008 532.736L786.888 481.65H876.244C886.093 481.65 894.044 483.964 900.096 488.592C906.148 493.22 909.174 499.391 909.174 507.104C909.174 514.461 906.089 520.513 899.918 525.26C893.866 529.888 885.441 532.795 874.642 533.982L877.312 527.218C889.653 527.811 899.028 530.481 905.436 535.228C911.963 539.856 915.226 546.264 915.226 554.452C915.226 563.352 911.844 570.531 905.08 575.99C898.435 581.33 889.594 584 878.558 584H786.888ZM830.32 575.1L812.876 557.122H862.182C864.555 557.122 866.454 556.529 867.878 555.342C869.302 554.037 870.014 552.257 870.014 550.002C870.014 547.747 869.302 546.027 867.878 544.84C866.454 543.535 864.437 542.882 861.826 542.882H821.42V521.344H857.02C859.156 521.344 860.817 520.81 862.004 519.742C863.309 518.555 863.962 516.953 863.962 514.936C863.962 512.919 863.309 511.376 862.004 510.308C860.817 509.121 859.156 508.528 857.02 508.528H813.054L830.32 490.55L836.728 532.736L830.32 575.1ZM943.407 481.65H1061.24V584H1016.03V494.288L1036.68 514.936H966.013L985.059 496.958C985.771 503.841 986.305 509.833 986.661 514.936C987.017 519.92 987.195 524.489 987.195 528.642C987.195 549.053 983.872 563.767 977.227 572.786C970.582 581.805 959.783 586.314 944.831 586.314C940.322 586.314 936.109 585.839 932.193 584.89C928.277 584.059 924.361 582.576 920.445 580.44V548.756C922.581 549.587 924.658 550.18 926.675 550.536C928.811 550.892 930.65 551.07 932.193 551.07C937.414 551.07 941.034 548.875 943.051 544.484C945.187 540.093 946.255 532.736 946.255 522.412C946.255 517.072 946.018 511.02 945.543 504.256C945.068 497.492 944.356 489.957 943.407 481.65ZM1138.94 587.204C1126.25 587.204 1114.85 584.949 1104.77 580.44C1094.8 575.812 1086.91 569.404 1081.09 561.216C1075.28 552.909 1072.37 543.297 1072.37 532.38C1072.37 521.581 1075.16 512.147 1080.74 504.078C1086.43 496.009 1094.15 489.719 1103.88 485.21C1113.61 480.701 1124.52 478.446 1136.63 478.446C1149.33 478.446 1160.12 481.057 1169.02 486.278C1177.92 491.499 1184.75 498.916 1189.49 508.528C1194.24 518.021 1196.61 529.295 1196.61 542.348H1109.39V521.522H1170.27L1158.17 528.286C1157.57 523.658 1156.39 519.801 1154.61 516.716C1152.83 513.631 1150.45 511.317 1147.49 509.774C1144.64 508.113 1141.2 507.282 1137.16 507.282C1132.65 507.282 1128.8 508.291 1125.59 510.308C1122.51 512.325 1120.13 515.114 1118.47 518.674C1116.93 522.115 1116.16 526.031 1116.16 530.422C1116.16 536.118 1117.4 540.924 1119.9 544.84C1122.51 548.637 1126.42 551.545 1131.64 553.562C1136.87 555.579 1143.45 556.588 1151.4 556.588C1159.12 556.588 1166.59 555.639 1173.83 553.74C1181.19 551.723 1187.95 548.875 1194.12 545.196V570.828C1186.53 576.168 1177.87 580.262 1168.13 583.11C1158.52 585.839 1148.79 587.204 1138.94 587.204ZM1208.18 481.65H1253.4V584H1208.18V481.65ZM1291.49 481.65H1336.7V584H1291.49V481.65ZM1234.35 514.758H1308.04V548.044H1234.35V514.758ZM1442.32 584L1437.16 547.866L1442.32 532.914L1437.16 518.14L1442.32 481.65H1489.31L1482.19 532.736L1489.31 584H1442.32ZM1451.75 532.914C1450.57 543.831 1447.6 553.384 1442.85 561.572C1438.22 569.641 1432.11 575.931 1424.52 580.44C1417.04 584.949 1408.44 587.204 1398.71 587.204C1388.74 587.204 1379.96 584.949 1372.36 580.44C1364.89 575.931 1359.01 569.582 1354.74 561.394C1350.59 553.206 1348.51 543.713 1348.51 532.914C1348.51 521.997 1350.59 512.444 1354.74 504.256C1359.01 496.068 1364.89 489.719 1372.36 485.21C1379.96 480.701 1388.74 478.446 1398.71 478.446C1408.44 478.446 1417.04 480.701 1424.52 485.21C1432.11 489.601 1438.28 495.89 1443.03 504.078C1447.78 512.147 1450.68 521.759 1451.75 532.914ZM1394.08 532.914C1394.08 536.83 1394.85 540.331 1396.39 543.416C1398.06 546.383 1400.31 548.756 1403.16 550.536C1406.13 552.316 1409.51 553.206 1413.3 553.206C1417.22 553.206 1421.02 552.316 1424.7 550.536C1428.38 548.756 1431.58 546.383 1434.31 543.416C1437.16 540.331 1439.11 536.83 1440.18 532.914C1439.11 528.998 1437.16 525.497 1434.31 522.412C1431.58 519.327 1428.38 516.894 1424.7 515.114C1421.02 513.334 1417.22 512.444 1413.3 512.444C1409.51 512.444 1406.13 513.334 1403.16 515.114C1400.31 516.894 1398.06 519.327 1396.39 522.412C1394.85 525.497 1394.08 528.998 1394.08 532.914Z" fill="#2D1400"/>
<defs>
<radialGradient id="paint0_radial_784_2" cx="0" cy="0" r="1" gradientUnits="userSpaceOnUse" gradientTransform="translate(960 529.5) rotate(90) scale(529.5 960)">
<stop stop-color="#E40000"/>
<stop offset="1" stop-color="#FFD600"/>
</radialGradient>
</defs>
</svg>
