<svg width="1085" height="430" viewBox="0 0 1085 430" fill="none" xmlns="http://www.w3.org/2000/svg">
<path d="M0 117L429.583 178.066C615.222 204.455 794.268 265.415 957.441 357.789L1085 430H0V117Z" fill="#118D06"/>
<path d="M56 73V145.5" stroke="#2D1400" stroke-width="14"/>
<circle cx="50.4788" cy="37.2438" r="29.5312" transform="rotate(12.8643 50.4788 37.2438)" fill="#118D06"/>
<circle cx="76.2571" cy="63.3239" r="29.5312" transform="rotate(12.8643 76.2571 63.3239)" fill="#118D06"/>
<circle cx="35.3655" cy="65.5251" r="29.5312" transform="rotate(12.8643 35.3655 65.5251)" fill="#118D06"/>
<mask id="path-6-inside-1_776_3" fill="white">
<path fill-rule="evenodd" clip-rule="evenodd" d="M21.0414 39.7002C20.7957 36.7485 20.9935 33.7094 21.6881 30.6679C25.3194 14.7676 41.1528 4.82157 57.0531 8.45279C69.6445 11.3283 78.502 21.8559 79.8399 34.0091C80.8345 34.132 81.8323 34.3064 82.8304 34.5343C98.7307 38.1656 108.677 53.999 105.046 69.8993C101.414 85.7996 85.5809 95.7456 69.6806 92.1144C64.8053 91.001 60.4897 88.7404 56.9538 85.6824C50.0094 93.1061 39.4146 96.742 28.79 94.3156C12.8897 90.6843 2.94364 74.8509 6.57486 58.9506C8.5193 50.4364 13.9626 43.6294 21.0414 39.7002Z"/>
</mask>
<path d="M21.0414 39.7002L21.5267 40.5745L22.0915 40.261L22.0379 39.6173L21.0414 39.7002ZM21.6881 30.6679L22.663 30.8906L21.6881 30.6679ZM57.0531 8.45279L56.8304 9.42769L57.0531 8.45279ZM79.8399 34.0091L78.8459 34.1186L78.9325 34.9047L79.7174 35.0016L79.8399 34.0091ZM82.8304 34.5343L82.6078 35.5092L82.8304 34.5343ZM105.046 69.8993L104.071 69.6766L105.046 69.8993ZM69.6806 92.1144L69.9033 91.1395L69.6806 92.1144ZM56.9538 85.6824L57.6079 84.9261L56.8804 84.297L56.2235 84.9993L56.9538 85.6824ZM28.79 94.3156L29.0126 93.3407H29.0126L28.79 94.3156ZM6.57486 58.9506L7.54976 59.1733L6.57486 58.9506ZM22.0379 39.6173C21.8007 36.7667 21.9916 33.8308 22.663 30.8906L20.7132 30.4453C19.9955 33.5881 19.7908 36.7303 20.0448 39.7831L22.0379 39.6173ZM22.663 30.8906C26.1713 15.5287 41.4686 5.91943 56.8304 9.42769L57.2757 7.47789C40.837 3.72371 24.4674 14.0066 20.7132 30.4453L22.663 30.8906ZM56.8304 9.42769C68.9939 12.2055 77.5531 22.3756 78.8459 34.1186L80.8339 33.8997C79.4508 21.3363 70.295 10.4512 57.2757 7.47789L56.8304 9.42769ZM79.7174 35.0016C80.6783 35.1203 81.6428 35.2889 82.6078 35.5092L83.0531 33.5594C82.0219 33.3239 80.9906 33.1436 79.9625 33.0167L79.7174 35.0016ZM82.6078 35.5092C97.9696 39.0175 107.579 54.3148 104.071 69.6766L106.02 70.1219C109.775 53.6832 99.4918 37.3136 83.0531 33.5594L82.6078 35.5092ZM104.071 69.6766C100.562 85.0385 85.2651 94.6477 69.9033 91.1395L69.458 93.0893C85.8967 96.8435 102.266 86.5606 106.02 70.1219L104.071 69.6766ZM69.9033 91.1395C65.1913 90.0634 61.0231 87.8796 57.6079 84.9261L56.2996 86.4388C59.9564 89.6012 64.4193 91.9386 69.458 93.0893L69.9033 91.1395ZM56.2235 84.9993C49.5122 92.1738 39.2763 95.6846 29.0126 93.3407L28.5673 95.2905C39.553 97.7993 50.5066 94.0384 57.684 86.3656L56.2235 84.9993ZM29.0126 93.3407C13.6508 89.8324 4.0415 74.5351 7.54976 59.1733L5.59996 58.728C1.84578 75.1667 12.1286 91.5363 28.5673 95.2905L29.0126 93.3407ZM7.54976 59.1733C9.42834 50.9474 14.6857 44.3717 21.5267 40.5745L20.5561 38.8259C13.2394 42.8871 7.61026 49.9253 5.59996 58.728L7.54976 59.1733Z" fill="#2D1400" mask="url(#path-6-inside-1_776_3)"/>
<path d="M501 160V232.5" stroke="#2D1400" stroke-width="14"/>
<circle cx="495.479" cy="124.244" r="29.5312" transform="rotate(12.8643 495.479 124.244)" fill="#118D06"/>
<circle cx="521.257" cy="150.324" r="29.5312" transform="rotate(12.8643 521.257 150.324)" fill="#118D06"/>
<circle cx="480.366" cy="152.525" r="29.5312" transform="rotate(12.8643 480.366 152.525)" fill="#118D06"/>
<mask id="path-12-inside-2_776_3" fill="white">
<path fill-rule="evenodd" clip-rule="evenodd" d="M466.041 126.7C465.796 123.749 465.994 120.709 466.688 117.668C470.319 101.768 486.153 91.8216 502.053 95.4528C514.644 98.3283 523.502 108.856 524.84 121.009C525.834 121.132 526.832 121.306 527.83 121.534C543.731 125.166 553.677 140.999 550.046 156.899C546.414 172.8 530.581 182.746 514.681 179.114C509.805 178.001 505.49 175.74 501.954 172.682C495.009 180.106 484.415 183.742 473.79 181.316C457.89 177.684 447.944 161.851 451.575 145.951C453.519 137.436 458.963 130.629 466.041 126.7Z"/>
</mask>
<path d="M466.041 126.7L466.527 127.575L467.092 127.261L467.038 126.617L466.041 126.7ZM466.688 117.668L467.663 117.891L466.688 117.668ZM502.053 95.4528L501.83 96.4277L502.053 95.4528ZM524.84 121.009L523.846 121.119L523.932 121.905L524.717 122.002L524.84 121.009ZM527.83 121.534L527.608 122.509L527.83 121.534ZM550.046 156.899L549.071 156.677L550.046 156.899ZM514.681 179.114L514.903 178.139L514.681 179.114ZM501.954 172.682L502.608 171.926L501.88 171.297L501.223 171.999L501.954 172.682ZM473.79 181.316L474.013 180.341H474.013L473.79 181.316ZM451.575 145.951L452.55 146.173L451.575 145.951ZM467.038 126.617C466.801 123.767 466.992 120.831 467.663 117.891L465.713 117.445C464.995 120.588 464.791 123.73 465.045 126.783L467.038 126.617ZM467.663 117.891C471.171 102.529 486.469 92.9194 501.83 96.4277L502.276 94.4779C485.837 90.7237 469.467 101.007 465.713 117.445L467.663 117.891ZM501.83 96.4277C513.994 99.2055 522.553 109.376 523.846 121.119L525.834 120.9C524.451 108.336 515.295 97.4512 502.276 94.4779L501.83 96.4277ZM524.717 122.002C525.678 122.12 526.643 122.289 527.608 122.509L528.053 120.559C527.022 120.324 525.991 120.144 524.962 120.017L524.717 122.002ZM527.608 122.509C542.97 126.017 552.579 141.315 549.071 156.677L551.02 157.122C554.775 140.683 544.492 124.314 528.053 120.559L527.608 122.509ZM549.071 156.677C545.562 172.038 530.265 181.648 514.903 178.139L514.458 180.089C530.897 183.843 547.266 173.561 551.02 157.122L549.071 156.677ZM514.903 178.139C510.191 177.063 506.023 174.88 502.608 171.926L501.3 173.439C504.956 176.601 509.419 178.939 514.458 180.089L514.903 178.139ZM501.223 171.999C494.512 179.174 484.276 182.685 474.013 180.341L473.567 182.29C484.553 184.799 495.507 181.038 502.684 173.366L501.223 171.999ZM474.013 180.341C458.651 176.832 449.042 161.535 452.55 146.173L450.6 145.728C446.846 162.167 457.129 178.536 473.567 182.29L474.013 180.341ZM452.55 146.173C454.428 137.947 459.686 131.372 466.527 127.575L465.556 125.826C458.239 129.887 452.61 136.925 450.6 145.728L452.55 146.173Z" fill="#2D1400" mask="url(#path-12-inside-2_776_3)"/>
<path d="M177 95V167.5" stroke="#2D1400" stroke-width="14"/>
<circle cx="171.479" cy="59.2438" r="29.5312" transform="rotate(12.8643 171.479 59.2438)" fill="#118D06"/>
<circle cx="197.257" cy="85.3239" r="29.5312" transform="rotate(12.8643 197.257 85.3239)" fill="#118D06"/>
<circle cx="156.366" cy="87.5251" r="29.5312" transform="rotate(12.8643 156.366 87.5251)" fill="#118D06"/>
<mask id="path-18-inside-3_776_3" fill="white">
<path fill-rule="evenodd" clip-rule="evenodd" d="M142.041 61.7002C141.796 58.7485 141.994 55.7094 142.688 52.6679C146.319 36.7676 162.153 26.8216 178.053 30.4528C190.644 33.3283 199.502 43.8559 200.84 56.0091C201.834 56.132 202.832 56.3064 203.83 56.5343C219.731 60.1656 229.677 75.999 226.046 91.8993C222.414 107.8 206.581 117.746 190.681 114.114C185.805 113.001 181.49 110.74 177.954 107.682C171.009 115.106 160.415 118.742 149.79 116.316C133.89 112.684 123.944 96.8509 127.575 80.9506C129.519 72.4364 134.963 65.6294 142.041 61.7002Z"/>
</mask>
<path d="M142.041 61.7002L142.527 62.5745L143.092 62.261L143.038 61.6173L142.041 61.7002ZM142.688 52.6679L143.663 52.8906L142.688 52.6679ZM178.053 30.4528L177.83 31.4277L178.053 30.4528ZM200.84 56.0091L199.846 56.1186L199.932 56.9047L200.717 57.0016L200.84 56.0091ZM203.83 56.5343L203.608 57.5092L203.83 56.5343ZM226.046 91.8993L225.071 91.6766L226.046 91.8993ZM190.681 114.114L190.903 113.139L190.681 114.114ZM177.954 107.682L178.608 106.926L177.88 106.297L177.223 106.999L177.954 107.682ZM149.79 116.316L150.013 115.341H150.013L149.79 116.316ZM127.575 80.9506L128.55 81.1733L127.575 80.9506ZM143.038 61.6173C142.801 58.7667 142.992 55.8308 143.663 52.8906L141.713 52.4453C140.995 55.5881 140.791 58.7303 141.045 61.7831L143.038 61.6173ZM143.663 52.8906C147.171 37.5287 162.469 27.9194 177.83 31.4277L178.276 29.4779C161.837 25.7237 145.467 36.0066 141.713 52.4453L143.663 52.8906ZM177.83 31.4277C189.994 34.2055 198.553 44.3756 199.846 56.1186L201.834 55.8997C200.451 43.3363 191.295 32.4512 178.276 29.4779L177.83 31.4277ZM200.717 57.0016C201.678 57.1203 202.643 57.2889 203.608 57.5092L204.053 55.5594C203.022 55.3239 201.991 55.1436 200.962 55.0167L200.717 57.0016ZM203.608 57.5092C218.97 61.0175 228.579 76.3148 225.071 91.6766L227.02 92.1219C230.775 75.6832 220.492 59.3136 204.053 55.5594L203.608 57.5092ZM225.071 91.6766C221.562 107.038 206.265 116.648 190.903 113.139L190.458 115.089C206.897 118.843 223.266 108.561 227.02 92.1219L225.071 91.6766ZM190.903 113.139C186.191 112.063 182.023 109.88 178.608 106.926L177.3 108.439C180.956 111.601 185.419 113.939 190.458 115.089L190.903 113.139ZM177.223 106.999C170.512 114.174 160.276 117.685 150.013 115.341L149.567 117.29C160.553 119.799 171.507 116.038 178.684 108.366L177.223 106.999ZM150.013 115.341C134.651 111.832 125.042 96.5351 128.55 81.1733L126.6 80.728C122.846 97.1667 133.129 113.536 149.567 117.29L150.013 115.341ZM128.55 81.1733C130.428 72.9474 135.686 66.3717 142.527 62.5745L141.556 60.8259C134.239 64.8871 128.61 71.9253 126.6 80.728L128.55 81.1733Z" fill="#2D1400" mask="url(#path-18-inside-3_776_3)"/>
<path d="M75 238V310.5" stroke="#2D1400" stroke-width="14"/>
<circle cx="69.4788" cy="202.244" r="29.5312" transform="rotate(12.8643 69.4788 202.244)" fill="#118D06"/>
<circle cx="95.2571" cy="228.324" r="29.5312" transform="rotate(12.8643 95.2571 228.324)" fill="#118D06"/>
<circle cx="54.3655" cy="230.525" r="29.5312" transform="rotate(12.8643 54.3655 230.525)" fill="#118D06"/>
<mask id="path-24-inside-4_776_3" fill="white">
<path fill-rule="evenodd" clip-rule="evenodd" d="M40.0414 204.7C39.7957 201.749 39.9935 198.709 40.6881 195.668C44.3194 179.768 60.1528 169.822 76.0531 173.453C88.6445 176.328 97.502 186.856 98.8399 199.009C99.8345 199.132 100.832 199.306 101.83 199.534C117.731 203.166 127.677 218.999 124.046 234.899C120.414 250.8 104.581 260.746 88.6806 257.114C83.8053 256.001 79.4897 253.74 75.9538 250.682C69.0094 258.106 58.4146 261.742 47.79 259.316C31.8897 255.684 21.9436 239.851 25.5749 223.951C27.5193 215.436 32.9626 208.629 40.0414 204.7Z"/>
</mask>
<path d="M40.0414 204.7L40.5267 205.575L41.0915 205.261L41.0379 204.617L40.0414 204.7ZM40.6881 195.668L41.663 195.891L40.6881 195.668ZM76.0531 173.453L75.8304 174.428L76.0531 173.453ZM98.8399 199.009L97.8459 199.119L97.9325 199.905L98.7174 200.002L98.8399 199.009ZM101.83 199.534L101.608 200.509L101.83 199.534ZM124.046 234.899L123.071 234.677L124.046 234.899ZM88.6806 257.114L88.9033 256.139L88.6806 257.114ZM75.9538 250.682L76.6079 249.926L75.8804 249.297L75.2235 249.999L75.9538 250.682ZM47.79 259.316L48.0126 258.341H48.0126L47.79 259.316ZM25.5749 223.951L26.5498 224.173L25.5749 223.951ZM41.0379 204.617C40.8007 201.767 40.9916 198.831 41.663 195.891L39.7132 195.445C38.9955 198.588 38.7908 201.73 39.0448 204.783L41.0379 204.617ZM41.663 195.891C45.1713 180.529 60.4686 170.919 75.8304 174.428L76.2757 172.478C59.837 168.724 43.4674 179.007 39.7132 195.445L41.663 195.891ZM75.8304 174.428C87.9939 177.206 96.5531 187.376 97.8459 199.119L99.8339 198.9C98.4508 186.336 89.295 175.451 76.2757 172.478L75.8304 174.428ZM98.7174 200.002C99.6783 200.12 100.643 200.289 101.608 200.509L102.053 198.559C101.022 198.324 99.9906 198.144 98.9625 198.017L98.7174 200.002ZM101.608 200.509C116.97 204.017 126.579 219.315 123.071 234.677L125.02 235.122C128.775 218.683 118.492 202.314 102.053 198.559L101.608 200.509ZM123.071 234.677C119.562 250.038 104.265 259.648 88.9033 256.139L88.458 258.089C104.897 261.843 121.266 251.561 125.02 235.122L123.071 234.677ZM88.9033 256.139C84.1913 255.063 80.0231 252.88 76.6079 249.926L75.2996 251.439C78.9564 254.601 83.4193 256.939 88.458 258.089L88.9033 256.139ZM75.2235 249.999C68.5122 257.174 58.2763 260.685 48.0126 258.341L47.5673 260.29C58.553 262.799 69.5066 259.038 76.684 251.366L75.2235 249.999ZM48.0126 258.341C32.6508 254.832 23.0415 239.535 26.5498 224.173L24.6 223.728C20.8458 240.167 31.1286 256.536 47.5673 260.29L48.0126 258.341ZM26.5498 224.173C28.4283 215.947 33.6857 209.372 40.5267 205.575L39.5561 203.826C32.2394 207.887 26.6103 214.925 24.6 223.728L26.5498 224.173Z" fill="#2D1400" mask="url(#path-24-inside-4_776_3)"/>
<path d="M211 185V257.5" stroke="#2D1400" stroke-width="14"/>
<circle cx="205.479" cy="149.244" r="29.5312" transform="rotate(12.8643 205.479 149.244)" fill="#118D06"/>
<circle cx="231.257" cy="175.324" r="29.5312" transform="rotate(12.8643 231.257 175.324)" fill="#118D06"/>
<circle cx="190.366" cy="177.525" r="29.5312" transform="rotate(12.8643 190.366 177.525)" fill="#118D06"/>
<mask id="path-30-inside-5_776_3" fill="white">
<path fill-rule="evenodd" clip-rule="evenodd" d="M176.041 151.7C175.796 148.749 175.994 145.709 176.688 142.668C180.319 126.768 196.153 116.822 212.053 120.453C224.644 123.328 233.502 133.856 234.84 146.009C235.834 146.132 236.832 146.306 237.83 146.534C253.731 150.166 263.677 165.999 260.046 181.899C256.414 197.8 240.581 207.746 224.681 204.114C219.805 203.001 215.49 200.74 211.954 197.682C205.009 205.106 194.415 208.742 183.79 206.316C167.89 202.684 157.944 186.851 161.575 170.951C163.519 162.436 168.963 155.629 176.041 151.7Z"/>
</mask>
<path d="M176.041 151.7L176.527 152.575L177.092 152.261L177.038 151.617L176.041 151.7ZM176.688 142.668L177.663 142.891L176.688 142.668ZM212.053 120.453L211.83 121.428L212.053 120.453ZM234.84 146.009L233.846 146.119L233.932 146.905L234.717 147.002L234.84 146.009ZM237.83 146.534L237.608 147.509L237.83 146.534ZM260.046 181.899L259.071 181.677L260.046 181.899ZM224.681 204.114L224.903 203.139L224.681 204.114ZM211.954 197.682L212.608 196.926L211.88 196.297L211.223 196.999L211.954 197.682ZM183.79 206.316L184.013 205.341H184.013L183.79 206.316ZM161.575 170.951L162.55 171.173L161.575 170.951ZM177.038 151.617C176.801 148.767 176.992 145.831 177.663 142.891L175.713 142.445C174.995 145.588 174.791 148.73 175.045 151.783L177.038 151.617ZM177.663 142.891C181.171 127.529 196.469 117.919 211.83 121.428L212.276 119.478C195.837 115.724 179.467 126.007 175.713 142.445L177.663 142.891ZM211.83 121.428C223.994 124.206 232.553 134.376 233.846 146.119L235.834 145.9C234.451 133.336 225.295 122.451 212.276 119.478L211.83 121.428ZM234.717 147.002C235.678 147.12 236.643 147.289 237.608 147.509L238.053 145.559C237.022 145.324 235.991 145.144 234.962 145.017L234.717 147.002ZM237.608 147.509C252.97 151.017 262.579 166.315 259.071 181.677L261.02 182.122C264.775 165.683 254.492 149.314 238.053 145.559L237.608 147.509ZM259.071 181.677C255.562 197.038 240.265 206.648 224.903 203.139L224.458 205.089C240.897 208.843 257.266 198.561 261.02 182.122L259.071 181.677ZM224.903 203.139C220.191 202.063 216.023 199.88 212.608 196.926L211.3 198.439C214.956 201.601 219.419 203.939 224.458 205.089L224.903 203.139ZM211.223 196.999C204.512 204.174 194.276 207.685 184.013 205.341L183.567 207.29C194.553 209.799 205.507 206.038 212.684 198.366L211.223 196.999ZM184.013 205.341C168.651 201.832 159.042 186.535 162.55 171.173L160.6 170.728C156.846 187.167 167.129 203.536 183.567 207.29L184.013 205.341ZM162.55 171.173C164.428 162.947 169.686 156.372 176.527 152.575L175.556 150.826C168.239 154.887 162.61 161.925 160.6 170.728L162.55 171.173Z" fill="#2D1400" mask="url(#path-30-inside-5_776_3)"/>
<path d="M374 138V210.5" stroke="#2D1400" stroke-width="14"/>
<circle cx="368.479" cy="102.244" r="29.5312" transform="rotate(12.8643 368.479 102.244)" fill="#118D06"/>
<circle cx="394.257" cy="128.324" r="29.5312" transform="rotate(12.8643 394.257 128.324)" fill="#118D06"/>
<circle cx="353.366" cy="130.525" r="29.5312" transform="rotate(12.8643 353.366 130.525)" fill="#118D06"/>
<mask id="path-36-inside-6_776_3" fill="white">
<path fill-rule="evenodd" clip-rule="evenodd" d="M339.041 104.7C338.796 101.749 338.994 98.7094 339.688 95.6679C343.319 79.7676 359.153 69.8216 375.053 73.4528C387.644 76.3283 396.502 86.8559 397.84 99.0091C398.834 99.132 399.832 99.3064 400.83 99.5343C416.731 103.166 426.677 118.999 423.046 134.899C419.414 150.8 403.581 160.746 387.681 157.114C382.805 156.001 378.49 153.74 374.954 150.682C368.009 158.106 357.415 161.742 346.79 159.316C330.89 155.684 320.944 139.851 324.575 123.951C326.519 115.436 331.963 108.629 339.041 104.7Z"/>
</mask>
<path d="M339.041 104.7L339.527 105.575L340.092 105.261L340.038 104.617L339.041 104.7ZM339.688 95.6679L340.663 95.8906L339.688 95.6679ZM375.053 73.4528L374.83 74.4277L375.053 73.4528ZM397.84 99.0091L396.846 99.1186L396.932 99.9047L397.717 100.002L397.84 99.0091ZM400.83 99.5343L400.608 100.509L400.83 99.5343ZM423.046 134.899L422.071 134.677L423.046 134.899ZM387.681 157.114L387.903 156.139L387.681 157.114ZM374.954 150.682L375.608 149.926L374.88 149.297L374.223 149.999L374.954 150.682ZM346.79 159.316L347.013 158.341H347.013L346.79 159.316ZM324.575 123.951L325.55 124.173L324.575 123.951ZM340.038 104.617C339.801 101.767 339.992 98.8308 340.663 95.8906L338.713 95.4453C337.995 98.5881 337.791 101.73 338.045 104.783L340.038 104.617ZM340.663 95.8906C344.171 80.5287 359.469 70.9194 374.83 74.4277L375.276 72.4779C358.837 68.7237 342.467 79.0066 338.713 95.4453L340.663 95.8906ZM374.83 74.4277C386.994 77.2055 395.553 87.3756 396.846 99.1186L398.834 98.8997C397.451 86.3363 388.295 75.4512 375.276 72.4779L374.83 74.4277ZM397.717 100.002C398.678 100.12 399.643 100.289 400.608 100.509L401.053 98.5594C400.022 98.3239 398.991 98.1436 397.962 98.0167L397.717 100.002ZM400.608 100.509C415.97 104.017 425.579 119.315 422.071 134.677L424.02 135.122C427.775 118.683 417.492 102.314 401.053 98.5594L400.608 100.509ZM422.071 134.677C418.562 150.038 403.265 159.648 387.903 156.139L387.458 158.089C403.897 161.843 420.266 151.561 424.02 135.122L422.071 134.677ZM387.903 156.139C383.191 155.063 379.023 152.88 375.608 149.926L374.3 151.439C377.956 154.601 382.419 156.939 387.458 158.089L387.903 156.139ZM374.223 149.999C367.512 157.174 357.276 160.685 347.013 158.341L346.567 160.29C357.553 162.799 368.507 159.038 375.684 151.366L374.223 149.999ZM347.013 158.341C331.651 154.832 322.042 139.535 325.55 124.173L323.6 123.728C319.846 140.167 330.129 156.536 346.567 160.29L347.013 158.341ZM325.55 124.173C327.428 115.947 332.686 109.372 339.527 105.575L338.556 103.826C331.239 107.887 325.61 114.925 323.6 123.728L325.55 124.173Z" fill="#2D1400" mask="url(#path-36-inside-6_776_3)"/>
<path d="M357 289V361.5" stroke="#2D1400" stroke-width="14"/>
<circle cx="351.479" cy="253.244" r="29.5312" transform="rotate(12.8643 351.479 253.244)" fill="#118D06"/>
<circle cx="377.257" cy="279.324" r="29.5312" transform="rotate(12.8643 377.257 279.324)" fill="#118D06"/>
<circle cx="336.366" cy="281.525" r="29.5312" transform="rotate(12.8643 336.366 281.525)" fill="#118D06"/>
<mask id="path-42-inside-7_776_3" fill="white">
<path fill-rule="evenodd" clip-rule="evenodd" d="M322.041 255.7C321.796 252.749 321.994 249.709 322.688 246.668C326.319 230.768 342.153 220.822 358.053 224.453C370.644 227.328 379.502 237.856 380.84 250.009C381.834 250.132 382.832 250.306 383.83 250.534C399.731 254.166 409.677 269.999 406.046 285.899C402.414 301.8 386.581 311.746 370.681 308.114C365.805 307.001 361.49 304.74 357.954 301.682C351.009 309.106 340.415 312.742 329.79 310.316C313.89 306.684 303.944 290.851 307.575 274.951C309.519 266.436 314.963 259.629 322.041 255.7Z"/>
</mask>
<path d="M322.041 255.7L322.527 256.575L323.092 256.261L323.038 255.617L322.041 255.7ZM322.688 246.668L323.663 246.891L322.688 246.668ZM358.053 224.453L357.83 225.428L358.053 224.453ZM380.84 250.009L379.846 250.119L379.932 250.905L380.717 251.002L380.84 250.009ZM383.83 250.534L383.608 251.509L383.83 250.534ZM406.046 285.899L405.071 285.677L406.046 285.899ZM370.681 308.114L370.903 307.139L370.681 308.114ZM357.954 301.682L358.608 300.926L357.88 300.297L357.223 300.999L357.954 301.682ZM329.79 310.316L330.013 309.341H330.013L329.79 310.316ZM307.575 274.951L308.55 275.173L307.575 274.951ZM323.038 255.617C322.801 252.767 322.992 249.831 323.663 246.891L321.713 246.445C320.995 249.588 320.791 252.73 321.045 255.783L323.038 255.617ZM323.663 246.891C327.171 231.529 342.469 221.919 357.83 225.428L358.276 223.478C341.837 219.724 325.467 230.007 321.713 246.445L323.663 246.891ZM357.83 225.428C369.994 228.206 378.553 238.376 379.846 250.119L381.834 249.9C380.451 237.336 371.295 226.451 358.276 223.478L357.83 225.428ZM380.717 251.002C381.678 251.12 382.643 251.289 383.608 251.509L384.053 249.559C383.022 249.324 381.991 249.144 380.962 249.017L380.717 251.002ZM383.608 251.509C398.97 255.017 408.579 270.315 405.071 285.677L407.02 286.122C410.775 269.683 400.492 253.314 384.053 249.559L383.608 251.509ZM405.071 285.677C401.562 301.038 386.265 310.648 370.903 307.139L370.458 309.089C386.897 312.843 403.266 302.561 407.02 286.122L405.071 285.677ZM370.903 307.139C366.191 306.063 362.023 303.88 358.608 300.926L357.3 302.439C360.956 305.601 365.419 307.939 370.458 309.089L370.903 307.139ZM357.223 300.999C350.512 308.174 340.276 311.685 330.013 309.341L329.567 311.29C340.553 313.799 351.507 310.038 358.684 302.366L357.223 300.999ZM330.013 309.341C314.651 305.832 305.042 290.535 308.55 275.173L306.6 274.728C302.846 291.167 313.129 307.536 329.567 311.29L330.013 309.341ZM308.55 275.173C310.428 266.947 315.686 260.372 322.527 256.575L321.556 254.826C314.239 258.887 308.61 265.925 306.6 274.728L308.55 275.173Z" fill="#2D1400" mask="url(#path-42-inside-7_776_3)"/>
<path d="M534 242V314.5" stroke="#2D1400" stroke-width="14"/>
<circle cx="528.479" cy="206.244" r="29.5312" transform="rotate(12.8643 528.479 206.244)" fill="#118D06"/>
<circle cx="554.257" cy="232.324" r="29.5312" transform="rotate(12.8643 554.257 232.324)" fill="#118D06"/>
<circle cx="513.366" cy="234.525" r="29.5312" transform="rotate(12.8643 513.366 234.525)" fill="#118D06"/>
<mask id="path-48-inside-8_776_3" fill="white">
<path fill-rule="evenodd" clip-rule="evenodd" d="M499.041 208.7C498.796 205.749 498.994 202.709 499.688 199.668C503.319 183.768 519.153 173.822 535.053 177.453C547.644 180.328 556.502 190.856 557.84 203.009C558.834 203.132 559.832 203.306 560.83 203.534C576.731 207.166 586.677 222.999 583.046 238.899C579.414 254.8 563.581 264.746 547.681 261.114C542.805 260.001 538.49 257.74 534.954 254.682C528.009 262.106 517.415 265.742 506.79 263.316C490.89 259.684 480.944 243.851 484.575 227.951C486.519 219.436 491.963 212.629 499.041 208.7Z"/>
</mask>
<path d="M499.041 208.7L499.527 209.575L500.092 209.261L500.038 208.617L499.041 208.7ZM499.688 199.668L500.663 199.891L499.688 199.668ZM535.053 177.453L534.83 178.428L535.053 177.453ZM557.84 203.009L556.846 203.119L556.932 203.905L557.717 204.002L557.84 203.009ZM560.83 203.534L560.608 204.509L560.83 203.534ZM583.046 238.899L582.071 238.677L583.046 238.899ZM547.681 261.114L547.903 260.139L547.681 261.114ZM534.954 254.682L535.608 253.926L534.88 253.297L534.223 253.999L534.954 254.682ZM506.79 263.316L507.013 262.341H507.013L506.79 263.316ZM484.575 227.951L485.55 228.173L484.575 227.951ZM500.038 208.617C499.801 205.767 499.992 202.831 500.663 199.891L498.713 199.445C497.995 202.588 497.791 205.73 498.045 208.783L500.038 208.617ZM500.663 199.891C504.171 184.529 519.469 174.919 534.83 178.428L535.276 176.478C518.837 172.724 502.467 183.007 498.713 199.445L500.663 199.891ZM534.83 178.428C546.994 181.206 555.553 191.376 556.846 203.119L558.834 202.9C557.451 190.336 548.295 179.451 535.276 176.478L534.83 178.428ZM557.717 204.002C558.678 204.12 559.643 204.289 560.608 204.509L561.053 202.559C560.022 202.324 558.991 202.144 557.962 202.017L557.717 204.002ZM560.608 204.509C575.97 208.017 585.579 223.315 582.071 238.677L584.02 239.122C587.775 222.683 577.492 206.314 561.053 202.559L560.608 204.509ZM582.071 238.677C578.562 254.038 563.265 263.648 547.903 260.139L547.458 262.089C563.897 265.843 580.266 255.561 584.02 239.122L582.071 238.677ZM547.903 260.139C543.191 259.063 539.023 256.88 535.608 253.926L534.3 255.439C537.956 258.601 542.419 260.939 547.458 262.089L547.903 260.139ZM534.223 253.999C527.512 261.174 517.276 264.685 507.013 262.341L506.567 264.29C517.553 266.799 528.507 263.038 535.684 255.366L534.223 253.999ZM507.013 262.341C491.651 258.832 482.042 243.535 485.55 228.173L483.6 227.728C479.846 244.167 490.129 260.536 506.567 264.29L507.013 262.341ZM485.55 228.173C487.428 219.947 492.686 213.372 499.527 209.575L498.556 207.826C491.239 211.887 485.61 218.925 483.6 227.728L485.55 228.173Z" fill="#2D1400" mask="url(#path-48-inside-8_776_3)"/>
<path d="M659 384V456.5" stroke="#2D1400" stroke-width="14"/>
<circle cx="653.479" cy="348.244" r="29.5312" transform="rotate(12.8643 653.479 348.244)" fill="#118D06"/>
<circle cx="679.257" cy="374.324" r="29.5312" transform="rotate(12.8643 679.257 374.324)" fill="#118D06"/>
<circle cx="638.366" cy="376.525" r="29.5312" transform="rotate(12.8643 638.366 376.525)" fill="#118D06"/>
<mask id="path-54-inside-9_776_3" fill="white">
<path fill-rule="evenodd" clip-rule="evenodd" d="M624.041 350.7C623.796 347.749 623.994 344.709 624.688 341.668C628.319 325.768 644.153 315.822 660.053 319.453C672.644 322.328 681.502 332.856 682.84 345.009C683.834 345.132 684.832 345.306 685.83 345.534C701.731 349.166 711.677 364.999 708.046 380.899C704.414 396.8 688.581 406.746 672.681 403.114C667.805 402.001 663.49 399.74 659.954 396.682C653.009 404.106 642.415 407.742 631.79 405.316C615.89 401.684 605.944 385.851 609.575 369.951C611.519 361.436 616.963 354.629 624.041 350.7Z"/>
</mask>
<path d="M624.041 350.7L624.527 351.575L625.092 351.261L625.038 350.617L624.041 350.7ZM624.688 341.668L625.663 341.891L624.688 341.668ZM660.053 319.453L659.83 320.428L660.053 319.453ZM682.84 345.009L681.846 345.119L681.932 345.905L682.717 346.002L682.84 345.009ZM685.83 345.534L685.608 346.509L685.83 345.534ZM708.046 380.899L707.071 380.677L708.046 380.899ZM672.681 403.114L672.903 402.139L672.681 403.114ZM659.954 396.682L660.608 395.926L659.88 395.297L659.223 395.999L659.954 396.682ZM631.79 405.316L632.013 404.341H632.013L631.79 405.316ZM609.575 369.951L610.55 370.173L609.575 369.951ZM625.038 350.617C624.801 347.767 624.992 344.831 625.663 341.891L623.713 341.445C622.995 344.588 622.791 347.73 623.045 350.783L625.038 350.617ZM625.663 341.891C629.171 326.529 644.469 316.919 659.83 320.428L660.276 318.478C643.837 314.724 627.467 325.007 623.713 341.445L625.663 341.891ZM659.83 320.428C671.994 323.206 680.553 333.376 681.846 345.119L683.834 344.9C682.451 332.336 673.295 321.451 660.276 318.478L659.83 320.428ZM682.717 346.002C683.678 346.12 684.643 346.289 685.608 346.509L686.053 344.559C685.022 344.324 683.991 344.144 682.962 344.017L682.717 346.002ZM685.608 346.509C700.97 350.017 710.579 365.315 707.071 380.677L709.02 381.122C712.775 364.683 702.492 348.314 686.053 344.559L685.608 346.509ZM707.071 380.677C703.562 396.038 688.265 405.648 672.903 402.139L672.458 404.089C688.897 407.843 705.266 397.561 709.02 381.122L707.071 380.677ZM672.903 402.139C668.191 401.063 664.023 398.88 660.608 395.926L659.3 397.439C662.956 400.601 667.419 402.939 672.458 404.089L672.903 402.139ZM659.223 395.999C652.512 403.174 642.276 406.685 632.013 404.341L631.567 406.29C642.553 408.799 653.507 405.038 660.684 397.366L659.223 395.999ZM632.013 404.341C616.651 400.832 607.042 385.535 610.55 370.173L608.6 369.728C604.846 386.167 615.129 402.536 631.567 406.29L632.013 404.341ZM610.55 370.173C612.428 361.947 617.686 355.372 624.527 351.575L623.556 349.826C616.239 353.887 610.61 360.925 608.6 369.728L610.55 370.173Z" fill="#2D1400" mask="url(#path-54-inside-9_776_3)"/>
<circle cx="201.479" cy="399.244" r="29.5312" transform="rotate(12.8643 201.479 399.244)" fill="#118D06"/>
<circle cx="227.257" cy="425.324" r="29.5312" transform="rotate(12.8643 227.257 425.324)" fill="#118D06"/>
<circle cx="186.366" cy="427.525" r="29.5312" transform="rotate(12.8643 186.366 427.525)" fill="#118D06"/>
<mask id="path-59-inside-10_776_3" fill="white">
<path fill-rule="evenodd" clip-rule="evenodd" d="M172.041 401.7C171.796 398.749 171.994 395.709 172.688 392.668C176.319 376.768 192.153 366.822 208.053 370.453C220.644 373.328 229.502 383.856 230.84 396.009C231.834 396.132 232.832 396.306 233.83 396.534C249.731 400.166 259.677 415.999 256.046 431.899C252.414 447.8 236.581 457.746 220.681 454.114C215.805 453.001 211.49 450.74 207.954 447.682C201.009 455.106 190.415 458.742 179.79 456.316C163.89 452.684 153.944 436.851 157.575 420.951C159.519 412.436 164.963 405.629 172.041 401.7Z"/>
</mask>
<path d="M172.041 401.7L172.527 402.575L173.092 402.261L173.038 401.617L172.041 401.7ZM172.688 392.668L173.663 392.891L172.688 392.668ZM208.053 370.453L207.83 371.428L208.053 370.453ZM230.84 396.009L229.846 396.119L229.932 396.905L230.717 397.002L230.84 396.009ZM233.83 396.534L233.608 397.509L233.83 396.534ZM256.046 431.899L255.071 431.677L256.046 431.899ZM220.681 454.114L220.903 453.139L220.681 454.114ZM207.954 447.682L208.608 446.926L207.88 446.297L207.223 446.999L207.954 447.682ZM179.79 456.316L180.013 455.341H180.013L179.79 456.316ZM157.575 420.951L158.55 421.173L157.575 420.951ZM173.038 401.617C172.801 398.767 172.992 395.831 173.663 392.891L171.713 392.445C170.995 395.588 170.791 398.73 171.045 401.783L173.038 401.617ZM173.663 392.891C177.171 377.529 192.469 367.919 207.83 371.428L208.276 369.478C191.837 365.724 175.467 376.007 171.713 392.445L173.663 392.891ZM207.83 371.428C219.994 374.206 228.553 384.376 229.846 396.119L231.834 395.9C230.451 383.336 221.295 372.451 208.276 369.478L207.83 371.428ZM230.717 397.002C231.678 397.12 232.643 397.289 233.608 397.509L234.053 395.559C233.022 395.324 231.991 395.144 230.962 395.017L230.717 397.002ZM233.608 397.509C248.97 401.017 258.579 416.315 255.071 431.677L257.02 432.122C260.775 415.683 250.492 399.314 234.053 395.559L233.608 397.509ZM255.071 431.677C251.562 447.038 236.265 456.648 220.903 453.139L220.458 455.089C236.897 458.843 253.266 448.561 257.02 432.122L255.071 431.677ZM220.903 453.139C216.191 452.063 212.023 449.88 208.608 446.926L207.3 448.439C210.956 451.601 215.419 453.939 220.458 455.089L220.903 453.139ZM207.223 446.999C200.512 454.174 190.276 457.685 180.013 455.341L179.567 457.29C190.553 459.799 201.507 456.038 208.684 448.366L207.223 446.999ZM180.013 455.341C164.651 451.832 155.042 436.535 158.55 421.173L156.6 420.728C152.846 437.167 163.129 453.536 179.567 457.29L180.013 455.341ZM158.55 421.173C160.428 412.947 165.686 406.372 172.527 402.575L171.556 400.826C164.239 404.887 158.61 411.925 156.6 420.728L158.55 421.173Z" fill="#2D1400" mask="url(#path-59-inside-10_776_3)"/>
<path d="M874 305V377.5" stroke="#2D1400" stroke-width="14"/>
<circle cx="868.479" cy="269.244" r="29.5312" transform="rotate(12.8643 868.479 269.244)" fill="#118D06"/>
<circle cx="894.257" cy="295.324" r="29.5312" transform="rotate(12.8643 894.257 295.324)" fill="#118D06"/>
<circle cx="853.366" cy="297.525" r="29.5312" transform="rotate(12.8643 853.366 297.525)" fill="#118D06"/>
<mask id="path-65-inside-11_776_3" fill="white">
<path fill-rule="evenodd" clip-rule="evenodd" d="M839.041 271.7C838.796 268.749 838.994 265.709 839.688 262.668C843.319 246.768 859.153 236.822 875.053 240.453C887.644 243.328 896.502 253.856 897.84 266.009C898.834 266.132 899.832 266.306 900.83 266.534C916.731 270.166 926.677 285.999 923.046 301.899C919.414 317.8 903.581 327.746 887.681 324.114C882.805 323.001 878.49 320.74 874.954 317.682C868.009 325.106 857.415 328.742 846.79 326.316C830.89 322.684 820.944 306.851 824.575 290.951C826.519 282.436 831.963 275.629 839.041 271.7Z"/>
</mask>
<path d="M839.041 271.7L839.527 272.575L840.092 272.261L840.038 271.617L839.041 271.7ZM839.688 262.668L840.663 262.891L839.688 262.668ZM875.053 240.453L874.83 241.428L875.053 240.453ZM897.84 266.009L896.846 266.119L896.932 266.905L897.717 267.002L897.84 266.009ZM900.83 266.534L900.608 267.509L900.83 266.534ZM923.046 301.899L922.071 301.677L923.046 301.899ZM887.681 324.114L887.903 323.139L887.681 324.114ZM874.954 317.682L875.608 316.926L874.88 316.297L874.223 316.999L874.954 317.682ZM846.79 326.316L847.013 325.341H847.013L846.79 326.316ZM824.575 290.951L825.55 291.173L824.575 290.951ZM840.038 271.617C839.801 268.767 839.992 265.831 840.663 262.891L838.713 262.445C837.995 265.588 837.791 268.73 838.045 271.783L840.038 271.617ZM840.663 262.891C844.171 247.529 859.469 237.919 874.83 241.428L875.276 239.478C858.837 235.724 842.467 246.007 838.713 262.445L840.663 262.891ZM874.83 241.428C886.994 244.206 895.553 254.376 896.846 266.119L898.834 265.9C897.451 253.336 888.295 242.451 875.276 239.478L874.83 241.428ZM897.717 267.002C898.678 267.12 899.643 267.289 900.608 267.509L901.053 265.559C900.022 265.324 898.991 265.144 897.962 265.017L897.717 267.002ZM900.608 267.509C915.97 271.017 925.579 286.315 922.071 301.677L924.02 302.122C927.775 285.683 917.492 269.314 901.053 265.559L900.608 267.509ZM922.071 301.677C918.562 317.038 903.265 326.648 887.903 323.139L887.458 325.089C903.897 328.843 920.266 318.561 924.02 302.122L922.071 301.677ZM887.903 323.139C883.191 322.063 879.023 319.88 875.608 316.926L874.3 318.439C877.956 321.601 882.419 323.939 887.458 325.089L887.903 323.139ZM874.223 316.999C867.512 324.174 857.276 327.685 847.013 325.341L846.567 327.29C857.553 329.799 868.507 326.038 875.684 318.366L874.223 316.999ZM847.013 325.341C831.651 321.832 822.042 306.535 825.55 291.173L823.6 290.728C819.846 307.167 830.129 323.536 846.567 327.29L847.013 325.341ZM825.55 291.173C827.428 282.947 832.686 276.372 839.527 272.575L838.556 270.826C831.239 274.887 825.61 281.925 823.6 290.728L825.55 291.173Z" fill="#2D1400" mask="url(#path-65-inside-11_776_3)"/>
</svg>
